<?xml version="1.0" encoding="UTF-8" standalone="no"?><!DOCTYPE svg PUBLIC "-//W3C//DTD SVG 1.1//EN" "http://www.w3.org/Graphics/SVG/1.1/DTD/svg11.dtd"><svg width="100%" height="100%" viewBox="0 0 758 179" version="1.1" xmlns="http://www.w3.org/2000/svg" xmlns:xlink="http://www.w3.org/1999/xlink" xml:space="preserve" xmlns:serif="http://www.serif.com/" style="fill-rule:evenodd;clip-rule:evenodd;stroke-linejoin:round;stroke-miterlimit:2;"><g><path d="M92.074,10.429c0.468,4.209 0.059,8.805 0.124,11.967c0.201,9.667 0.335,19.334 0.404,29.002c0.053,7.43 -0.085,14.858 -0.181,22.286c-0.089,6.857 -0.493,13.887 -2.67,20.444c-1.227,3.699 -3.379,6.938 -7.054,8.62c0,0 -11.865,-10.546 -11.868,-10.549c-0.066,-0.058 1.308,-3.007 1.383,-3.205c1.039,-2.733 1.828,-5.566 2.338,-8.444c2.532,-14.271 -3.316,-28.966 -18.125,-33.138c-7.842,-2.209 -16.655,-1.211 -23.726,2.872c-7.586,4.382 -13.266,12.076 -15.078,20.659c-2.43,11.514 2.164,23.667 11.819,30.46c6.38,4.489 15.364,5.623 22.828,3.835c3.293,-0.789 6.44,-2.039 9.332,-3.809l14.504,14.504c0,0 3.733,5.539 -1.319,10.549c0,0 -5.761,5.803 -11.867,-1.318c0,0 -5.273,-5.274 -5.274,-5.275c-0.282,-0.281 -3.705,0.895 -4.123,0.98c-1.895,0.384 -3.814,0.653 -5.742,0.805c-14.778,1.166 -29.831,-4.754 -38.839,-16.735c-3.941,-5.244 -6.753,-11.358 -8.051,-17.794c-0.878,-4.355 -1.041,-8.952 -0.769,-13.379c0.926,-15.034 8.579,-28.153 21.29,-36.283c6.541,-4.184 14.09,-7.041 21.863,-7.31c6.55,-0.228 13.122,0.877 19.28,3.102c4.309,1.557 8.41,3.66 12.232,6.182l0,-31.646c0,-4.813 4.427,-8.27 9.092,-7.761c5.725,0.624 7.623,5.209 8.197,10.379" style="fill:#1c1564;"/><path d="M45.836,56.995c8.646,-2.151 16.642,3.477 18.061,12.135c0.492,3.008 5.069,1.732 4.578,-1.263c-1.843,-11.256 -12.959,-18.174 -23.902,-15.452c-2.964,0.738 -1.709,5.318 1.263,4.58" style="fill:#1c1564;fill-rule:nonzero;"/></g><rect x="124.958" y="33.415" width="12.684" height="66.642" style="fill:#1c1564;fill-rule:nonzero;"/><path d="M177.921,49.285c-7.444,0 -11.513,2.378 -14.887,6.342l0,-4.755l-12.684,0l0,49.185l12.684,0l0,-25.392c0,-8.927 5.359,-12.696 11.115,-12.696c6.55,0 9.528,3.471 9.528,11.109l0,26.979l12.684,0l0,-28.566c0,-14.873 -7.135,-22.206 -18.44,-22.206Z" style="fill:#1c1564;fill-rule:nonzero;"/><path d="M228.899,49.285c-13.592,0 -24.591,11.693 -24.591,26.179c0,14.487 10.999,26.18 24.591,26.18c5.954,0 11.115,-2.279 15.084,-6.838l0,5.251l12.683,0l0,-69.816l-12.683,0l0,25.881c-3.969,-4.558 -9.13,-6.837 -15.084,-6.837Zm1.588,39.675c-7.442,0 -13.496,-6.053 -13.496,-13.496c0,-7.442 6.054,-13.495 13.496,-13.495c7.443,0 13.496,6.053 13.496,13.495c0,7.443 -6.053,13.496 -13.496,13.496Z" style="fill:#1c1564;fill-rule:nonzero;"/><path d="M274.923,44.512c4.857,0 8.722,-3.866 8.722,-8.723c0,-4.856 -3.865,-8.722 -8.722,-8.722c-4.857,0 -8.722,3.866 -8.722,8.722c0,4.857 3.865,8.723 8.722,8.723Zm-6.342,55.545l12.684,0l0,-49.185l-12.684,0l0,49.185Z" style="fill:#1c1564;fill-rule:nonzero;"/><path d="M329.681,50.872l0,5.25c-3.97,-4.558 -9.13,-6.837 -15.084,-6.837c-13.592,0 -24.591,11.693 -24.591,26.179c0,14.487 10.999,26.18 24.591,26.18c5.954,0 11.114,-2.279 15.084,-6.838l0,5.251l12.683,0l0,-49.185l-12.683,0Zm-13.496,38.088c-7.442,0 -13.496,-6.053 -13.496,-13.496c0,-7.442 6.054,-13.495 13.496,-13.495c7.443,0 13.496,6.053 13.496,13.495c0,7.443 -6.053,13.496 -13.496,13.496Z" style="fill:#1c1564;fill-rule:nonzero;"/><path d="M377.183,33.415l-22.11,0l0,66.642l22.11,0c22.326,0 35.009,-14.867 35.009,-33.321c0,-18.455 -12.089,-33.321 -35.009,-33.321Zm2.282,53.958l-11.709,0l0,-41.274l11.709,0c11.907,0 20.044,9.227 20.044,20.637c0,11.41 -8.137,20.637 -20.044,20.637Z" style="fill:#1c1564;fill-rule:nonzero;"/><path d="M458.228,50.872l0,5.25c-3.97,-4.558 -9.13,-6.837 -15.084,-6.837c-13.592,0 -24.591,11.693 -24.591,26.179c0,14.487 10.999,26.18 24.591,26.18c5.954,0 11.114,-2.279 15.084,-6.838l0,5.251l12.683,0l0,-49.185l-12.683,0Zm-13.496,38.088c-7.442,0 -13.496,-6.053 -13.496,-13.496c0,-7.442 6.054,-13.495 13.496,-13.495c7.442,0 13.496,6.053 13.496,13.495c0,7.443 -6.054,13.496 -13.496,13.496Z" style="fill:#1c1564;fill-rule:nonzero;"/><path d="M486.794,86.081c0,9.122 3.864,15.563 12.882,15.563c4.166,0 6.844,-0.595 9.323,-1.586l0,-11.099c-6.249,1.487 -9.522,1.19 -9.522,-6.351l0,-20.639l9.522,0l0,-11.097l-9.522,0l0,-17.457l-12.683,0l0,17.457l-6.348,0l0,11.097l6.348,0l0,24.112Z" style="fill:#1c1564;fill-rule:nonzero;"/><path d="M556.622,50.872l0,5.25c-3.97,-4.558 -9.13,-6.837 -15.084,-6.837c-13.592,0 -24.591,11.693 -24.591,26.179c0,14.487 10.999,26.18 24.591,26.18c5.954,0 11.114,-2.279 15.084,-6.838l0,5.251l12.683,0l0,-49.185l-12.683,0Zm-13.496,38.088c-7.443,0 -13.496,-6.053 -13.496,-13.496c0,-7.442 6.053,-13.495 13.496,-13.495c7.442,0 13.496,6.053 13.496,13.495c0,7.443 -6.054,13.496 -13.496,13.496Z" style="fill:#1c1564;fill-rule:nonzero;"/><path d="M623.276,33.415l0,26.979l-28.579,0l0,-26.979l-12.683,0l0,66.642l12.683,0l0,-26.979l28.579,0l0,26.979l12.683,0l0,-66.642l-12.683,0Z" style="fill:#1c1564;fill-rule:nonzero;"/><path d="M665.52,101.644c7.444,0 11.513,-2.378 14.888,-6.342l0,4.755l12.683,0l0,-49.185l-12.683,0l0,25.392c0,8.927 -5.36,12.696 -11.116,12.696c-6.55,0 -9.528,-3.471 -9.528,-11.109l0,-26.979l-12.683,0l0,28.566c0,14.873 7.134,22.206 18.439,22.206Z" style="fill:#1c1564;fill-rule:nonzero;"/><path d="M732.773,49.285c-5.954,0 -11.114,2.279 -15.083,6.837l0,-25.881l-12.684,0l0,69.816l12.684,0l0,-5.251c3.969,4.559 9.129,6.838 15.083,6.838c13.592,0 24.592,-11.693 24.592,-26.18c0,-14.486 -11,-26.179 -24.592,-26.179Zm-1.588,39.675c-7.442,0 -13.495,-6.053 -13.495,-13.496c0,-7.442 6.053,-13.495 13.495,-13.495c7.443,0 13.496,6.053 13.496,13.495c0,7.443 -6.053,13.496 -13.496,13.496Z" style="fill:#1c1564;fill-rule:nonzero;"/><path d="M133.866,133.341l-8.908,0l0,32.367l8.908,0c10.553,0 16.521,-7.221 16.521,-16.183c0,-8.963 -5.727,-16.184 -16.521,-16.184Zm0.289,29.29l-6.12,0l0,-26.213l6.12,0c8.144,0 13.155,5.493 13.155,13.107c0,7.613 -5.011,13.106 -13.155,13.106Z" style="fill:#1c1564;fill-rule:nonzero;"/><path d="M176.021,142.591l0,4.089c-1.976,-2.696 -5.108,-4.475 -8.867,-4.475c-6.602,0 -11.944,5.342 -11.944,11.944c0,6.602 5.342,11.944 11.944,11.944c3.759,0 6.891,-1.779 8.867,-4.475l0,4.09l3.077,0l0,-23.117l-3.077,0Zm-8.867,20.425c-4.915,0 -8.866,-3.952 -8.866,-8.867c0,-4.915 3.951,-8.867 8.866,-8.867c4.916,0 8.867,3.952 8.867,8.867c0,4.915 -3.951,8.867 -8.867,8.867Z" style="fill:#1c1564;fill-rule:nonzero;"/><path d="M188.546,158.135c0,4.428 0.673,7.953 5.052,7.953c1.301,0 2.023,-0.241 2.65,-0.483l0,-3.138c-1.06,0.53 -2.602,0.723 -3.71,-0.097c-0.915,-0.673 -0.915,-2.358 -0.915,-3.995l0,-12.707l4.625,0l0,-3.077l-4.625,0l0,-9.25l-3.077,0l0,9.25l-3.083,0l0,3.077l3.083,0l0,12.467Z" style="fill:#1c1564;fill-rule:nonzero;"/><path d="M222.652,142.591l0,4.089c-1.975,-2.696 -5.108,-4.475 -8.866,-4.475c-6.602,0 -11.944,5.342 -11.944,11.944c0,6.602 5.342,11.944 11.944,11.944c3.758,0 6.891,-1.779 8.866,-4.475l0,4.09l3.077,0l0,-23.117l-3.077,0Zm-8.866,20.425c-4.916,0 -8.867,-3.952 -8.867,-8.867c0,-4.915 3.951,-8.867 8.867,-8.867c4.915,0 8.866,3.952 8.866,8.867c0,4.915 -3.951,8.867 -8.866,8.867Z" style="fill:#1c1564;fill-rule:nonzero;"/><rect x="250.015" y="128.711" width="2.306" height="49.329" style="fill:#1c1564;fill-rule:nonzero;"/><path d="M300.88,165.708l3.467,0l-15.412,-33.137l-15.412,33.137l3.468,0l3.178,-6.937l17.532,0l3.179,6.937Zm-19.314,-10.014l7.369,-16.186l7.369,16.186l-14.738,0Z" style="fill:#1c1564;fill-rule:nonzero;"/><path d="M319.862,142.205c-3.229,0 -6.409,2.02 -7.614,3.944l0,-3.558l-3.077,0l0,23.117l3.077,0l0,-13.485c0,-4.339 4.144,-6.941 7.711,-6.941c4.723,0 6.169,3.035 6.169,6.744l0,13.682l3.077,0l0,-12.911c0,-6.84 -2.693,-10.592 -9.343,-10.592Z" style="fill:#1c1564;fill-rule:nonzero;"/><path d="M355.609,142.591l0,4.089c-1.975,-2.696 -5.108,-4.475 -8.866,-4.475c-6.602,0 -11.944,5.342 -11.944,11.944c0,6.602 5.342,11.944 11.944,11.944c3.758,0 6.891,-1.779 8.866,-4.475l0,4.09l3.077,0l0,-23.117l-3.077,0Zm-8.866,20.425c-4.916,0 -8.867,-3.952 -8.867,-8.867c0,-4.915 3.951,-8.867 8.867,-8.867c4.915,0 8.866,3.952 8.866,8.867c0,4.915 -3.951,8.867 -8.866,8.867Z" style="fill:#1c1564;fill-rule:nonzero;"/><rect x="366.207" y="131.794" width="3.077" height="33.914" style="fill:#1c1564;fill-rule:nonzero;"/><path d="M392.456,142.591l-7.561,17.724l-7.561,-17.724l-3.612,0l9.343,21.674l-6.164,13.775l3.516,0l15.651,-35.449l-3.612,0Z" style="fill:#1c1564;fill-rule:nonzero;"/><path d="M402.433,158.135c0,4.428 0.673,7.953 5.052,7.953c1.301,0 2.024,-0.241 2.65,-0.483l0,-3.138c-1.06,0.53 -2.601,0.723 -3.709,-0.097c-0.916,-0.673 -0.916,-2.358 -0.916,-3.995l0,-12.707l4.625,0l0,-3.077l-4.625,0l0,-9.25l-3.077,0l0,9.25l-3.083,0l0,3.077l3.083,0l0,12.467Z" style="fill:#1c1564;fill-rule:nonzero;"/><path d="M418.809,138.731c1.492,0 2.695,-1.203 2.695,-2.695c0,-1.492 -1.203,-2.695 -2.695,-2.695c-1.492,0 -2.695,1.203 -2.695,2.695c0,1.492 1.203,2.695 2.695,2.695Zm-1.538,26.977l3.077,0l0,-23.117l-3.077,0l0,23.117Z" style="fill:#1c1564;fill-rule:nonzero;"/><path d="M444.675,160.703c-1.638,1.445 -3.854,2.313 -6.311,2.313c-5.829,0 -9.345,-3.952 -9.345,-8.867c0,-4.867 3.613,-8.867 9.345,-8.867c2.698,0 4.721,0.771 6.263,2.121l1.349,-2.794c-2.024,-1.635 -4.529,-2.404 -7.564,-2.404c-7.804,0 -12.47,5.342 -12.47,11.944c0,6.602 4.57,11.944 12.47,11.944c2.794,0 5.733,-0.914 7.564,-2.596l-1.301,-2.794Z" style="fill:#1c1564;fill-rule:nonzero;"/><path d="M460.383,152.222c-2.507,-0.531 -6.122,-1.35 -6.122,-3.566c0,-3.133 3.374,-3.422 5.543,-3.374c2.555,0.049 5.446,1.157 6.408,1.928l1.154,-2.793c-2.694,-1.683 -5.682,-2.212 -7.61,-2.212c-5.206,0 -8.572,2.548 -8.572,6.402c0,3.325 1.587,5.349 8.572,6.699c2.555,0.53 5.302,1.59 5.302,4.096c0,2.554 -2.844,3.662 -5.543,3.614c-2.796,-0.048 -6.071,-1.157 -7.754,-2.988l-1.348,2.795c0.964,1.01 4.523,3.27 9.198,3.27c5.543,0 8.524,-3.318 8.524,-6.836c0,-3.229 -1.539,-5.734 -7.752,-7.035Z" style="fill:#1c1564;fill-rule:nonzero;"/><rect x="490.879" y="128.711" width="2.306" height="49.329" style="fill:#1c1564;fill-rule:nonzero;"/><rect x="517.47" y="133.341" width="3.077" height="32.366" style="fill:#1c1564;fill-rule:nonzero;"/><path d="M539.145,142.205c-3.229,0 -6.41,2.02 -7.615,3.944l0,-3.558l-3.077,0l0,23.117l3.077,0l0,-13.485c0,-4.339 4.145,-6.941 7.711,-6.941c4.723,0 6.169,3.035 6.169,6.744l0,13.682l3.077,0l0,-12.911c0,-6.84 -2.692,-10.592 -9.342,-10.592Z" style="fill:#1c1564;fill-rule:nonzero;"/><path d="M556.779,158.135c0,4.428 0.673,7.953 5.052,7.953c1.301,0 2.023,-0.241 2.65,-0.483l0,-3.138c-1.06,0.53 -2.602,0.723 -3.71,-0.097c-0.915,-0.673 -0.915,-2.358 -0.915,-3.995l0,-12.707l4.625,0l0,-3.077l-4.625,0l0,-9.25l-3.077,0l0,9.25l-3.083,0l0,3.077l3.083,0l0,12.467Z" style="fill:#1c1564;fill-rule:nonzero;"/><path d="M592.035,154.053c0,-7.421 -4.715,-11.848 -10.835,-11.848c-7.084,0 -11.511,5.247 -11.511,11.944c0,6.504 4.523,11.944 12.137,11.944c5.012,0 8.046,-2.26 8.671,-2.789l-1.154,-2.795c-1.927,1.494 -4.433,2.507 -7.42,2.507c-4.916,0 -8.578,-2.941 -9.06,-7.328l19.028,0c0.096,-0.529 0.144,-1.154 0.144,-1.635Zm-19.172,-1.442c0.144,-3.279 2.698,-7.329 8.192,-7.329c5.446,0 7.711,4.147 7.855,7.329l-16.047,0Z" style="fill:#1c1564;fill-rule:nonzero;"/><rect x="597.63" y="131.794" width="3.077" height="33.914" style="fill:#1c1564;fill-rule:nonzero;"/><rect x="608.228" y="131.794" width="3.077" height="33.914" style="fill:#1c1564;fill-rule:nonzero;"/><path d="M620.364,138.731c1.492,0 2.695,-1.203 2.695,-2.695c0,-1.492 -1.203,-2.695 -2.695,-2.695c-1.492,0 -2.695,1.203 -2.695,2.695c0,1.492 1.203,2.695 2.695,2.695Zm-1.538,26.977l3.077,0l0,-23.117l-3.077,0l0,23.117Z" style="fill:#1c1564;fill-rule:nonzero;"/><path d="M648.693,142.591l0,4.089c-1.976,-2.696 -5.108,-4.475 -8.867,-4.475c-6.602,0 -11.944,5.342 -11.944,11.944c0,6.602 5.342,11.944 11.944,11.944c3.759,0 6.891,-1.779 8.867,-4.475l0,3.321c0,7.228 -3.663,10.409 -9.06,10.409c-4.289,0 -7.373,-1.783 -9.443,-3.471l-1.539,2.7c1.01,0.819 5.007,3.848 10.982,3.848c7.566,0 12.137,-4.523 12.137,-14.159l0,-21.675l-3.077,0Zm-8.867,20.425c-4.915,0 -8.867,-3.95 -8.867,-8.864c0,-4.918 3.952,-8.87 8.867,-8.87c4.915,0 8.867,3.952 8.867,8.867c0,4.917 -3.952,8.867 -8.867,8.867Z" style="fill:#1c1564;fill-rule:nonzero;"/><path d="M679.71,154.053c0,-7.421 -4.715,-11.848 -10.836,-11.848c-7.084,0 -11.51,5.247 -11.51,11.944c0,6.504 4.523,11.944 12.137,11.944c5.012,0 8.045,-2.26 8.67,-2.789l-1.154,-2.795c-1.926,1.494 -4.432,2.507 -7.42,2.507c-4.915,0 -8.578,-2.941 -9.06,-7.328l19.029,0c0.096,-0.529 0.144,-1.154 0.144,-1.635Zm-19.173,-1.442c0.145,-3.279 2.699,-7.329 8.193,-7.329c5.445,0 7.71,4.147 7.855,7.329l-16.048,0Z" style="fill:#1c1564;fill-rule:nonzero;"/><path d="M695.996,142.205c-3.229,0 -6.41,2.02 -7.615,3.944l0,-3.558l-3.077,0l0,23.117l3.077,0l0,-13.485c0,-4.339 4.145,-6.941 7.711,-6.941c4.723,0 6.169,3.035 6.169,6.744l0,13.682l3.077,0l0,-12.911c0,-6.84 -2.693,-10.592 -9.342,-10.592Z" style="fill:#1c1564;fill-rule:nonzero;"/><path d="M729.665,160.703c-1.638,1.445 -3.854,2.313 -6.31,2.313c-5.829,0 -9.346,-3.952 -9.346,-8.867c0,-4.867 3.613,-8.867 9.346,-8.867c2.697,0 4.72,0.771 6.262,2.121l1.349,-2.794c-2.023,-1.635 -4.528,-2.404 -7.563,-2.404c-7.804,0 -12.471,5.342 -12.471,11.944c0,6.602 4.57,11.944 12.471,11.944c2.794,0 5.732,-0.914 7.563,-2.596l-1.301,-2.794Z" style="fill:#1c1564;fill-rule:nonzero;"/><path d="M757.365,154.053c0,-7.421 -4.716,-11.848 -10.836,-11.848c-7.084,0 -11.511,5.247 -11.511,11.944c0,6.504 4.523,11.944 12.137,11.944c5.012,0 8.046,-2.26 8.671,-2.789l-1.154,-2.795c-1.927,1.494 -4.432,2.507 -7.42,2.507c-4.916,0 -8.578,-2.941 -9.06,-7.328l19.028,0c0.096,-0.529 0.145,-1.154 0.145,-1.635Zm-19.173,-1.442c0.144,-3.279 2.698,-7.329 8.192,-7.329c5.446,0 7.711,4.147 7.855,7.329l-16.047,0Z" style="fill:#1c1564;fill-rule:nonzero;"/></svg>